<svg width="40" height="40" viewBox="0 0 40 40" fill="none" xmlns="http://www.w3.org/2000/svg">
<circle cx="20" cy="20" r="20" fill="#27302F"/>
<g clipPath="url(#clip0_266_66)">
<path d="M20.0669 12.43L22.0569 16.4611C22.1689 16.6891 22.3869 16.847 22.6369 16.883L27.0869 17.5301C27.2292 17.551 27.3628 17.6113 27.4727 17.7042C27.5826 17.797 27.6643 17.9187 27.7087 18.0556C27.7531 18.1924 27.7584 18.3389 27.724 18.4786C27.6896 18.6183 27.6168 18.7455 27.5139 18.8461L24.2939 21.984C24.2044 22.0714 24.1374 22.1792 24.0988 22.2982C24.0601 22.4172 24.0509 22.5437 24.0719 22.667L24.8319 27.098C24.856 27.2399 24.84 27.3858 24.7857 27.5191C24.7314 27.6523 24.6408 27.7678 24.5243 27.8523C24.4079 27.9369 24.2701 27.9872 24.1265 27.9976C23.9829 28.0079 23.8393 27.978 23.7119 27.911L19.7319 25.819C19.6211 25.761 19.498 25.7306 19.3729 25.7306C19.2478 25.7306 19.1246 25.761 19.0139 25.819L15.0339 27.911C14.9065 27.9777 14.763 28.0074 14.6196 27.9969C14.4762 27.9864 14.3386 27.9361 14.2223 27.8516C14.106 27.767 14.0155 27.6517 13.9612 27.5186C13.9069 27.3855 13.8909 27.2398 13.9149 27.098L14.6749 22.667C14.6962 22.5437 14.6871 22.4171 14.6484 22.2981C14.6097 22.1791 14.5426 22.0713 14.4529 21.984L11.2329 18.8461C11.13 18.7455 11.0572 18.6181 11.0228 18.4784C10.9885 18.3386 10.9938 18.192 11.0383 18.0552C11.0828 17.9183 11.1647 17.7966 11.2747 17.7038C11.3847 17.611 11.5185 17.5509 11.6609 17.5301L16.1099 16.883C16.2335 16.8649 16.3509 16.817 16.4519 16.7435C16.5529 16.67 16.6346 16.5731 16.6899 16.4611L18.6799 12.43C18.7439 12.3008 18.8428 12.1921 18.9653 12.1161C19.0879 12.04 19.2292 11.9998 19.3734 11.9998C19.5176 11.9998 19.6589 12.04 19.7815 12.1161C19.904 12.1921 20.0029 12.3008 20.0669 12.43Z" fill="#FC7614"/>
</g>
<defs>
<clipPath id="clip0_266_66">
<rect width="17" height="16" fill="white" transform="translate(11 12)"/>
</clipPath>
</defs>
</svg>
